<svg xmlns="http://www.w3.org/2000/svg" width="24" height="24" viewBox="0 0 24 24" fill="none" stroke="currentColor" stroke-width="2" stroke-linecap="round" stroke-linejoin="round"><path d="M12 5a3 3 0 1 0-5.993.129"/><path d="M12 5a3 3 0 1 1 5.993.129"/><path d="M15 13a3 3 0 1 0-5.993.129"/><path d="M15 13a3 3 0 1 1 5.993.129"/><path d="M9 13a3 3 0 1 0-5.993.129"/><path d="M9 13a3 3 0 1 1 5.993.129"/><path d="M12 21a3 3 0 1 0-5.993-.129"/><path d="M12 21a3 3 0 1 1 5.993-.129"/><path d="M12 5a3 3 0 0 0-3 3v2"/><path d="M12 5a3 3 0 0 1 3 3v2"/><path d="M15 13a3 3 0 0 0-3 3v2"/><path d="M15 13a3 3 0 0 1 3 3v2"/><path d="M9 13a3 3 0 0 1 3 3v2"/><path d="M9 13a3 3 0 0 0-3 3v2"/><path d="M12 21a3 3 0 0 1-3-3v-2"/><path d="M12 21a3 3 0 0 0 3-3v-2"/><path d="M12 8v4"/><path d="M15 16v4"/><path d="M9 16v4"/><path d="m14.5 5.5-2 2-2-2"/><path d="m9.5 5.5 2 2 2-2"/></svg>
